<svg width="9" height="14" viewBox="0 0 9 14" fill="none" xmlns="http://www.w3.org/2000/svg">
<path d="M7.83926 6.64133L1.90191 1.1622C1.79872 1.06748 1.65937 1.01471 1.51438 1.01547C1.3694 1.01622 1.23061 1.07044 1.12841 1.16623C1.07831 1.21298 1.03864 1.26848 1.01168 1.32955C0.984731 1.39063 0.971032 1.45605 0.971376 1.52206C0.97172 1.58806 0.9861 1.65334 1.01369 1.71413C1.04128 1.77491 1.08153 1.83 1.13211 1.87622L6.69154 6.98732L1.18585 12.1861C1.13575 12.2328 1.09607 12.2883 1.06912 12.3494C1.04217 12.4105 1.02847 12.4759 1.02881 12.5419C1.02916 12.6079 1.04354 12.6732 1.07113 12.734C1.09871 12.7948 1.13896 12.8499 1.18955 12.8961C1.29753 12.9803 1.43627 13.0226 1.57692 13.0141C1.64738 13.0145 1.71716 13.0012 1.78178 12.975C1.8464 12.9489 1.90443 12.9104 1.95215 12.8621L7.84296 7.35132C7.89307 7.30458 7.93274 7.24907 7.95969 7.188C7.98664 7.12693 8.00034 7.0615 8 6.9955C7.99965 6.92949 7.98527 6.86421 7.95769 6.80343C7.9301 6.74264 7.88985 6.68755 7.83926 6.64133Z" fill="white"/>
</svg>
